<?xml version="1.0" encoding="utf-8"?>
<!-- Generated by IcoMoon.io -->
<svg version="1.1" xmlns="http://www.w3.org/2000/svg" xmlns:xlink="http://www.w3.org/1999/xlink" width="752" height="32" viewBox="0 0 752 32">
<svg id="icon_logo1" width="136" height="32" viewBox="0 0 136 32" x="0" y="0">
<path d="M127.227 18.329c0-1.713-0.94-3.001-2.425-3.001-1.482 0-2.425 1.288-2.425 3.001 0 1.711 0.943 2.998 2.425 2.998 1.489 0.005 2.425-1.283 2.425-2.998zM127.155 14.179v-4.483c-0-0.004-0-0.009-0-0.014 0-0.287 0.189-0.53 0.449-0.611l0.005-0.001 2.218-0.635v15.171h-2.461v-1.288c-0.62 0.967-1.731 1.533-3.121 1.533-2.856 0-4.531-2.457-4.531-5.519 0-3.060 1.674-5.517 4.531-5.517 1.386-0.003 2.405 0.64 2.91 1.366zM112.012 13.051v1.288c0.451-0.908 1.465-1.533 2.931-1.533 2.37 0 3.628 1.693 3.628 4.211v6.589h-2.668v-6.264c0-1.229-0.488-2.075-1.672-2.075-1.297 0-2.009 0.884-2.009 2.297v6.041h-2.668v-10.555zM103.315 23.85c-2.875 0-4.475-1.331-4.475-4.755v-6.043h2.668v6.085c0 1.47 0.62 2.152 1.804 2.152s1.802-0.685 1.802-2.152v-6.087h2.669v6.041c0.005 3.427-1.593 4.758-4.468 4.758zM90.031 18.329c0 1.893 1.090 2.998 2.498 2.998s2.499-1.108 2.499-2.998-1.091-3.003-2.499-3.003c-1.405 0-2.498 1.107-2.498 3.001zM92.532 23.85c-3.156 0-5.171-2.518-5.171-5.519 0-2.998 2.011-5.517 5.171-5.517 3.156 0 5.171 2.518 5.171 5.517-0.003 3.001-2.014 5.519-5.171 5.519zM79.23 18.329c0 1.711 0.941 2.998 2.425 2.998 1.485 0 2.425-1.287 2.425-2.998 0-1.713-0.94-3.001-2.425-3.001-1.484 0-2.425 1.288-2.425 3.001zM79.306 22.481v4.389c0 0.004 0 0.010 0 0.015 0 0.286-0.188 0.529-0.447 0.61l-0.005 0.001-2.216 0.625v-15.069h2.462v1.288c0.618-0.967 1.73-1.533 3.119-1.533 2.856 0 4.531 2.457 4.531 5.519 0 3.060-1.674 5.517-4.531 5.517-1.393 0.007-2.407-0.638-2.914-1.364zM68.712 17.603v6.003h-2.668v-6.264c0-1.167-0.394-2.075-1.578-2.075-1.243 0-1.92 0.866-1.92 2.277v6.063h-2.668v-10.555h2.462v1.288c0.451-0.908 1.43-1.533 2.838-1.533 1.336 0 2.291 0.563 2.856 1.491 0.866-1.027 1.861-1.491 3.269-1.491 2.368 0 3.571 1.753 3.571 4.211v6.589h-2.669v-6.264c0-1.167-0.394-2.075-1.578-2.075-1.26 0-1.915 0.866-1.915 2.336zM50.976 18.328c0 1.895 1.090 3.001 2.498 3.001 1.41 0 2.499-1.112 2.499-3s-1.090-3.003-2.499-3.003c-1.408 0-2.498 1.107-2.498 3.001zM53.474 23.85c-3.156 0-5.169-2.518-5.169-5.519 0-2.998 2.009-5.517 5.171-5.517s5.169 2.518 5.169 5.517c0 3.001-2.013 5.519-5.171 5.519zM34.459 16.435c0-4.47 2.875-7.434 6.71-7.434 3.326 0 5.959 2.115 6.466 5.6h-2.932c-0.396-1.794-1.748-2.803-3.533-2.803-2.444 0-3.816 1.812-3.816 4.633s1.373 4.633 3.816 4.633c1.785 0 3.138-1.009 3.533-2.801h2.931c-0.505 3.485-3.138 5.6-6.464 5.6-3.835 0.005-6.708-2.956-6.708-7.427zM8.202 24.493c-0.665-0.456-1.095-1.211-1.095-2.067 0-0.009 0-0.017 0-0.026v0.001-4.761c0-0.182 0.044-0.357 0.13-0.514 0.154-0.302 0.463-0.506 0.82-0.506 0.18 0 0.347 0.052 0.489 0.141l-0.004-0.002 10.023 6.264c0.586 0.367 0.947 1.037 0.947 1.767v4.931c0 0.001 0 0.001 0 0.002 0 0.234-0.062 0.454-0.17 0.644l0.003-0.006c-0.33 0.581-1.034 0.763-1.575 0.408zM23.143 15.454c0.586 0.369 0.947 1.039 0.947 1.768v10.008c0 0.004 0 0.008 0 0.013 0 0.294-0.153 0.551-0.384 0.698l-0.003 0.002-2.196 1.324c-0.025 0.015-0.054 0.028-0.085 0.038l-0.003 0.001v-5.558c0-0.717-0.352-1.384-0.928-1.757l-8.803-5.644v-6.275c0-0.182 0.045-0.357 0.131-0.514 0.154-0.302 0.463-0.506 0.82-0.506 0.18 0 0.347 0.052 0.489 0.141l-0.004-0.002zM27.528 8.062c0.589 0.365 0.95 1.041 0.95 1.77v14.619c0 0.003 0 0.006 0 0.009 0 0.299-0.158 0.562-0.396 0.709l-0.004 0.002-2.080 1.203v-10.176c0-0.719-0.352-1.383-0.926-1.753l-8.997-5.787v-5.95c0-0.182 0.045-0.357 0.128-0.514 0.155-0.303 0.465-0.507 0.823-0.507 0.179 0 0.345 0.051 0.486 0.139l-0.004-0.002z"></path>
</svg>
<svg id="icon_logo2" width="71" height="32" viewBox="0 0 71 32" x="144" y="0">
<path d="M43.512 24.534l-6.755-17.568c-0.051-0.148-0.082-0.319-0.084-0.497v-0.001c-0.001-0.017-0.001-0.038-0.001-0.059 0-0.35 0.125-0.671 0.333-0.921l-0.002 0.002c0.112-0.124 0.249-0.222 0.403-0.288l0.008-0.003c0.124-0.053 0.269-0.085 0.421-0.085 0.023 0 0.046 0.001 0.069 0.002l-0.003-0c0.265 0.005 0.507 0.098 0.7 0.251l-0.002-0.002c0.211 0.168 0.376 0.397 0.478 0.657l6.425 17.189 6.427-17.187c0.105-0.265 0.271-0.486 0.48-0.654l0.003-0.002c0.19-0.152 0.432-0.245 0.696-0.251l0.001-0c0.018-0.001 0.038-0.002 0.059-0.002 0.153 0 0.299 0.032 0.432 0.089l-0.007-0.003c0.161 0.069 0.298 0.167 0.408 0.289l0.001 0.001c0.209 0.248 0.336 0.571 0.336 0.924 0 0.019-0 0.037-0.001 0.055l0-0.003c-0.002 0.168-0.030 0.337-0.084 0.499l-6.755 17.568c-0.116 0.387-0.342 0.724-0.645 0.967s-0.669 0.376-1.048 0.384h-0.6c-0.379-0.008-0.744-0.143-1.049-0.384s-0.527-0.581-0.643-0.967zM57.209 25.347c-0.217-0.24-0.349-0.559-0.349-0.909 0-0.012 0-0.023 0-0.034l-0 0.002v-17.794c-0.003-0.179 0.025-0.355 0.084-0.522s0.15-0.318 0.264-0.446c0.109-0.124 0.243-0.224 0.394-0.292l0.007-0.003c0.131-0.060 0.283-0.095 0.444-0.095 0.012 0 0.024 0 0.036 0.001l-0.002-0h10.979c0.007-0 0.015-0 0.023-0 0.155 0 0.302 0.034 0.433 0.096l-0.006-0.003c0.148 0.068 0.273 0.163 0.374 0.28l0.001 0.001c0.216 0.227 0.349 0.535 0.349 0.874 0 0.004-0 0.008-0 0.012v-0.001c0 0.011 0.001 0.023 0.001 0.036 0 0.159-0.031 0.312-0.088 0.451l0.003-0.008c-0.063 0.154-0.152 0.285-0.264 0.394l-0 0c-0.106 0.112-0.233 0.203-0.375 0.267l-0.007 0.003c-0.129 0.058-0.279 0.091-0.437 0.091-0.004 0-0.009-0-0.013-0h-9.709v6.479h8.733c0.007-0 0.015-0 0.023-0 0.155 0 0.302 0.034 0.433 0.096l-0.006-0.003c0.149 0.068 0.275 0.163 0.376 0.28l0.001 0.001c0.109 0.115 0.199 0.253 0.258 0.404 0.061 0.153 0.091 0.317 0.091 0.482 0 0.011 0.001 0.023 0.001 0.036 0 0.159-0.031 0.312-0.088 0.451l0.003-0.008c-0.063 0.154-0.152 0.285-0.264 0.394l-0 0c-0.105 0.112-0.232 0.203-0.373 0.267l-0.007 0.003c-0.129 0.058-0.279 0.091-0.437 0.091-0.003 0-0.007 0-0.010-0h-8.732v6.508h9.708c0.010-0 0.022-0.001 0.035-0.001 0.152 0 0.297 0.033 0.427 0.092l-0.006-0.003c0.149 0.069 0.275 0.165 0.376 0.283l0.001 0.001c0.113 0.115 0.202 0.253 0.263 0.406 0.061 0.155 0.089 0.32 0.086 0.487 0 0.010 0 0.022 0 0.034 0 0.159-0.031 0.312-0.088 0.451l0.003-0.008c-0.062 0.155-0.152 0.287-0.264 0.396l-0 0c-0.2 0.218-0.487 0.354-0.805 0.354-0.010 0-0.020-0-0.030-0l0.001 0h-10.969c-0.023 0.002-0.049 0.003-0.075 0.003-0.146 0-0.285-0.031-0.411-0.086l0.007 0.003c-0.158-0.069-0.292-0.169-0.398-0.293l-0.001-0.002zM38.287 24.037l-6.762-17.568c-0.116-0.391-0.34-0.719-0.637-0.962l-0.003-0.003c-0.284-0.231-0.646-0.374-1.042-0.386l-0.002-0h-0.595c-0.399 0.010-0.763 0.153-1.051 0.387l0.003-0.003c-0.303 0.243-0.529 0.579-0.645 0.967l-2.939 7.655h-2.228c-0.32 0.005-0.627 0.143-0.852 0.387s-0.354 0.573-0.354 0.915v0.013c0 0.344 0.128 0.674 0.354 0.916s0.532 0.382 0.852 0.387h1.196l-2.804 7.294c-0.051 0.148-0.082 0.32-0.084 0.497v0.001c-0.001 0.017-0.001 0.038-0.001 0.059 0 0.35 0.125 0.671 0.333 0.921l-0.002-0.002c0.112 0.124 0.249 0.222 0.403 0.288l0.008 0.003c0.155 0.064 0.32 0.093 0.488 0.083 0.264-0.005 0.506-0.098 0.698-0.251l-0.002 0.002c0.211-0.172 0.375-0.393 0.475-0.646l0.004-0.011 3.094-8.239h2.125c0.32-0.003 0.627-0.141 0.852-0.386s0.354-0.573 0.354-0.916v-0.034c0-0.344-0.128-0.674-0.354-0.916s-0.532-0.382-0.852-0.386h-1.15l2.376-6.312 6.427 17.187c0.101 0.261 0.266 0.488 0.478 0.657 0.202 0.16 0.446 0.246 0.697 0.251 0.167 0.010 0.333-0.017 0.488-0.083 0.164-0.069 0.303-0.167 0.415-0.29l0.001-0.001c0.221-0.269 0.337-0.618 0.322-0.977 0.001-0.018 0.001-0.039 0.001-0.061 0-0.157-0.029-0.308-0.082-0.447l0.003 0.009zM18.097 24.037l-6.755-17.568c-0.116-0.387-0.342-0.726-0.647-0.968s-0.674-0.376-1.053-0.382h-0.593c-0.4 0.010-0.764 0.153-1.053 0.387l0.003-0.003c-0.303 0.243-0.527 0.579-0.643 0.967l-2.939 7.655h-2.228c-0.32 0.005-0.627 0.143-0.852 0.387s-0.354 0.573-0.354 0.915v0.013c0 0.344 0.128 0.674 0.354 0.916s0.532 0.382 0.852 0.387h1.196l-2.804 7.293c-0.051 0.148-0.082 0.32-0.084 0.497v0.001c-0.001 0.017-0.001 0.038-0.001 0.059 0 0.35 0.125 0.671 0.333 0.921l-0.002-0.002c0.112 0.124 0.249 0.222 0.403 0.288l0.008 0.003c0.155 0.064 0.32 0.093 0.488 0.083 0.264-0.005 0.506-0.098 0.698-0.251l-0.002 0.002c0.211-0.172 0.375-0.393 0.475-0.646l0.004-0.011 3.094-8.237h2.139c0.339-0.004 0.642-0.15 0.855-0.381l0.001-0.001c0.221-0.241 0.357-0.563 0.357-0.918 0-0.001 0-0.001 0-0.002v0-0.034c0-0 0-0 0-0 0-0.354-0.136-0.677-0.358-0.919l0.001 0.001c-0.213-0.233-0.518-0.38-0.857-0.384h-1.143l2.358-6.312 6.425 17.186c0.101 0.261 0.266 0.488 0.477 0.657 0.202 0.16 0.446 0.246 0.697 0.251 0.168 0.010 0.335-0.017 0.492-0.083 0.163-0.069 0.3-0.168 0.412-0.29l0.001-0.001c0.222-0.269 0.337-0.618 0.323-0.977 0.001-0.018 0.001-0.039 0.001-0.061 0-0.157-0.029-0.308-0.082-0.447l0.003 0.009z"></path>
</svg>
<svg id="icon_logo3" width="120" height="32" viewBox="0 0 120 32" x="240" y="0">
<path d="M19.894 13.827v-4.534h-2.277v-2.267h-4.554v-2.267h-4.551v2.267h-4.552v2.267h-2.277v13.602h2.277v2.267h4.549v2.267h4.554v-2.267h4.552v-2.267h2.279v-4.534h-4.556v2.262h-2.275v2.267h-4.551v-2.267h-2.277v-9.061h2.277v-2.27h4.551v2.267h2.275v2.269zM32.227 7.016c5.245 0 9.029 3.687 9.029 9.1s-3.769 9.059-9.029 9.059c-5.261 0-8.99-3.687-8.99-9.061 0-5.373 3.784-9.098 8.99-9.098zM32.227 10.351c-2.919 0-5.049 2.235-5.049 5.768 0 3.532 2.131 5.725 5.049 5.725 2.998 0 5.086-2.235 5.086-5.726 0-3.488-2.088-5.767-5.086-5.767zM44.451 8.509c2.56-0.958 5.272-1.462 8.007-1.489 4.456 0 7.296 1.684 7.296 6.587v11.175h-3.865v-10.824c0-2.513-1.578-3.412-3.747-3.412-0.028-0-0.061-0-0.094-0-1.315 0-2.586 0.185-3.79 0.531l0.097-0.024v13.728h-3.902zM68.982 24.781l-6.742-17.374h4.141l4.93 13.612 4.901-13.612h4.022l-6.794 17.374zM85.389 16.977v0.077c0.236 3.101 2.917 4.785 5.64 4.785 2.403 0 4.141-0.547 5.875-1.684v3.412c-1.576 1.098-3.902 1.607-6.151 1.607-5.443 0-9.152-3.461-9.152-8.941s3.631-9.229 8.441-9.229c5.086 0 7.495 3.254 7.495 8v1.962zM85.507 14.467h8.36c-0.077-2.708-1.42-4.199-3.943-4.199-2.247 0-3.904 1.568-4.416 4.199zM110.685 15.842l6.469 8.94h-4.456l-4.298-6.080-4.3 6.080h-4.261l6.471-8.903-6.090-8.472h4.497l3.864 5.57 3.803-5.57h4.428z"></path>
</svg>
<svg id="icon_logo4" width="116" height="32" viewBox="0 0 116 32" x="384" y="0">
<path d="M34.543 7.855h2.934v12.586h7.208v2.809h-10.141zM57.504 7.855h2.931v15.395h-2.931zM74.474 7.855h4.888c1.011 0 1.971 0.212 2.883 0.635 0.913 0.408 1.718 0.962 2.419 1.662s1.255 1.516 1.662 2.444 0.611 1.915 0.611 2.957-0.204 2.028-0.611 2.956c-0.418 0.948-0.978 1.759-1.662 2.444l0-0c-0.701 0.701-1.506 1.263-2.419 1.688-0.84 0.385-1.822 0.61-2.856 0.61-0.010 0-0.019-0-0.029-0h-4.886zM79.362 20.441c0.603 0 1.181-0.131 1.735-0.391 0.58-0.266 1.074-0.62 1.489-1.050l0.001-0.001c0.44-0.441 0.781-0.953 1.027-1.541 0.259-0.603 0.389-1.238 0.389-1.905 0-0.009 0-0.020 0-0.031 0-0.67-0.144-1.307-0.403-1.88l0.012 0.029c-0.246-0.609-0.593-1.128-1.026-1.563l0 0c-0.417-0.431-0.911-0.785-1.46-1.039l-0.030-0.012c-0.506-0.247-1.102-0.391-1.731-0.391-0.001 0-0.003 0-0.004 0h-1.955v9.775zM106.732 23.373c-1.011 0-1.971-0.195-2.883-0.586-0.921-0.422-1.707-0.981-2.37-1.661l-0.002-0.002c-0.657-0.707-1.199-1.532-1.592-2.437l-0.022-0.056c-0.371-0.888-0.586-1.92-0.586-3.002 0-0.027 0-0.054 0-0.081l-0 0.004c0-1.091 0.195-2.11 0.588-3.055 0.406-0.96 0.943-1.792 1.612-2.493 0.657-0.692 1.445-1.252 2.325-1.642l0.046-0.018c0.911-0.408 1.873-0.611 2.883-0.611s1.962 0.202 2.858 0.611c0.93 0.4 1.719 0.962 2.368 1.657l0.004 0.004c0.684 0.701 1.221 1.533 1.613 2.493 0.406 0.945 0.61 1.964 0.61 3.055 0 0.022 0 0.049 0 0.076 0 1.085-0.224 2.117-0.629 3.053l0.019-0.050c-0.4 0.965-0.945 1.791-1.617 2.496l0.003-0.003c-0.659 0.689-1.447 1.249-2.325 1.643l-0.047 0.019c-0.831 0.37-1.8 0.586-2.819 0.586-0.014 0-0.027-0-0.041-0h0.002zM106.732 20.563c0 0 0 0 0 0 1.255 0 2.385-0.535 3.174-1.39l0.003-0.003c0.408-0.455 0.733-0.985 0.977-1.588 0.246-0.618 0.367-1.295 0.367-2.028s-0.123-1.401-0.367-2.004c-0.238-0.614-0.568-1.141-0.98-1.592l0.004 0.004c-0.782-0.872-1.912-1.418-3.17-1.418-0.002 0-0.004 0-0.007 0h0c-0.006-0-0.012-0-0.019-0-0.63 0-1.229 0.135-1.768 0.378l0.027-0.011c-0.539 0.244-1.011 0.595-1.416 1.051-0.408 0.448-0.739 0.975-0.965 1.554l-0.012 0.034c-0.233 0.574-0.368 1.239-0.368 1.936 0 0.024 0 0.048 0 0.072l-0-0.004c0 0.733 0.121 1.41 0.365 2.028 0.244 0.603 0.571 1.133 0.977 1.588 0.408 0.441 0.881 0.783 1.418 1.027 0.511 0.231 1.109 0.366 1.737 0.366 0.008 0 0.016-0 0.024-0h-0.001z"></path>
<path d="M4.702 12.148l6.732 3.924 6.732-3.924-6.732-10.536zM6.764 11.65l4.67-7.309 4.67 7.309-4.67 2.723z"></path>
<path d="M11.424 18.392l-7.81-4.554-0.212 0.333c-0.94 1.45-1.498 3.223-1.498 5.127 0 5.258 4.263 9.521 9.521 9.521s9.521-4.263 9.521-9.521c0-1.903-0.559-3.676-1.521-5.164l0.023 0.037-0.214-0.333-7.81 4.551z"></path>
</svg>
<svg id="icon_logo5" width="141" height="32" viewBox="0 0 141 32" x="528" y="0">
<path d="M34.987 31.373v-2.193l3.712-0.862v-21.306l-3.708-0.862v-2.193h21.404v8.028h-2.379l-1.611-5.052h-7.136v9.126l7.499-0.668v3.878l-7.499-0.587v9.713h7.215l2.741-5.483h2.379l-1.21 8.459h-21.406zM59.415 13.867v-2.078h9.634v13.513c0 1.331 0.169 2.253 0.503 2.761 0.337 0.51 1.015 0.764 2.037 0.764 0.779 0 1.585-0.196 2.417-0.587 0.834-0.393 1.506-0.915 2.018-1.568v-12.021l-2.62-0.785v-2.076h8.868v16.646h3.145v1.685c-0.591 0.39-1.069 0.672-1.431 0.838-0.363 0.171-0.768 0.341-1.21 0.512-0.391 0.155-0.851 0.284-1.327 0.365l-0.042 0.006c-0.393 0.071-0.846 0.114-1.309 0.117l-0.003 0c-1.935 0-3.292-0.849-4.070-2.547-1.909 1.698-4.247 2.547-7.014 2.547-4.113 0-6.17-2.048-6.167-6.148v-11.162l-3.428-0.785zM86.545 31.373v-2.076l3.426-0.783v-24.911h-3.426v-2.076l6.449-1.485h3.185v28.474l3.426 0.783v2.076h-13.060zM101.419 21.346c0-3.081 0.896-5.54 2.682-7.381 1.788-1.843 4.213-2.763 7.275-2.761 3.119 0 5.476 1.030 7.076 3.093s2.398 4.608 2.398 7.637h-13.222c0.19 1.92 0.9 3.578 2.138 4.966s2.822 2.084 4.757 2.084c1.451 0 3.008-0.288 4.676-0.862l0.845 2.231c-2.498 1.071-4.943 1.604-7.337 1.604-3.467 0-6.214-0.986-8.243-2.957-2.027-1.971-3.042-4.523-3.042-7.659zM107.627 19.505l6.814-0.431c0-0.017 0-0.037 0-0.057 0-0.594-0.044-1.178-0.13-1.748l0.008 0.064c-0.081-0.535-0.311-1.182-0.685-1.941-0.672-1.094-1.466-1.643-2.379-1.643-1.075 0-1.963 0.533-2.66 1.604-0.405 0.661-0.681 1.393-0.806 2.155-0.105 0.526-0.165 1.13-0.165 1.749 0 0.087 0.001 0.174 0.004 0.261l-0-0.013zM123.187 31.373v-2.076l3.426-0.783v-13.161h-3.426v-2.074l6.451-1.489h3.183v2.353c2.016-1.958 4.407-2.938 7.177-2.938 0.166 0.533 0.247 1.088 0.241 1.645 0 0.027 0 0.060 0 0.092 0 1.164-0.147 2.293-0.424 3.37l0.020-0.094-5.077-0.823c-0.646 0.288-1.291 0.706-1.937 1.254v11.866l4.233 0.783v2.076h-13.867z"></path>
<path d="M17.835 4.196l-15.586 6.741c-0.998 0.421-1.685 1.392-1.685 2.522 0 0.408 0.089 0.795 0.25 1.142l-0.007-0.017c0.64 1.395 2.321 2.022 3.755 1.402l15.588-6.741c0.998-0.421 1.685-1.392 1.685-2.522 0-0.408-0.089-0.795-0.25-1.142l0.007 0.017c-0.64-1.395-2.319-2.022-3.755-1.402z"></path>
<path d="M13.513 15.14l-10.391 4.495c-0.998 0.421-1.685 1.392-1.685 2.522 0 0.408 0.089 0.795 0.25 1.142l-0.007-0.017c0.64 1.395 2.321 2.022 3.755 1.402l10.391-4.495c0.998-0.421 1.685-1.392 1.685-2.522 0-0.408-0.089-0.795-0.25-1.142l0.007 0.017c-0.64-1.395-2.319-2.022-3.755-1.402z"></path>
<path d="M24.777 19.341l-15.588 6.743c-0.997 0.422-1.683 1.392-1.683 2.522 0 0.408 0.090 0.795 0.25 1.143l-0.007-0.017c0.638 1.395 2.319 2.022 3.755 1.402l15.586-6.743c0.998-0.421 1.685-1.392 1.685-2.522 0-0.408-0.089-0.795-0.25-1.142l0.007 0.017c-0.64-1.395-2.319-2.022-3.755-1.402z"></path>
</svg>
</svg>
