<svg fill="none" height="19" viewBox="0 0 69 19" width="69" xmlns="http://www.w3.org/2000/svg"><g fill="#777fc2"><path d="M20.51 4.664h1.742v7.473h4.28v1.668h-6.021zM34.143 4.664h1.74v9.141h-1.74zM44.219 4.664h2.902c.6 0 1.17.126 1.712.377.542.242 1.02.571 1.436.987.416.416.745.9.987 1.451s.363 1.137.363 1.756-.121 1.204-.363 1.755a4.705 4.705 0 0 1-.987 1.451c-.416.416-.894.75-1.436 1.002a4.153 4.153 0 0 1-1.712.362h-2.902zm2.902 7.473c.358 0 .701-.078 1.03-.232a2.88 2.88 0 0 0 .885-.624c.261-.262.464-.566.61-.915.154-.358.231-.735.231-1.131a2.72 2.72 0 0 0-.232-1.118 2.768 2.768 0 0 0-.609-.928 2.878 2.878 0 0 0-.885-.624 2.392 2.392 0 0 0-1.03-.232H45.96v5.804zM63.372 13.878c-.6 0-1.17-.116-1.712-.348a4.626 4.626 0 0 1-1.408-.987 5.13 5.13 0 0 1-.958-1.48 4.735 4.735 0 0 1-.348-1.828c0-.648.116-1.253.349-1.814.241-.57.56-1.064.957-1.48a4.312 4.312 0 0 1 1.408-.986c.541-.242 1.112-.363 1.712-.363s1.165.12 1.697.363a4.118 4.118 0 0 1 1.408.986c.406.416.725.91.958 1.48.241.561.362 1.166.362 1.814a4.57 4.57 0 0 1-.362 1.828 4.758 4.758 0 0 1-.958 1.48 4.402 4.402 0 0 1-1.408.987 4.199 4.199 0 0 1-1.697.348zm0-1.669a2.564 2.564 0 0 0 1.886-.827c.242-.27.435-.585.58-.943.146-.367.218-.769.218-1.204 0-.435-.073-.832-.218-1.19a2.981 2.981 0 0 0-.58-.943 2.525 2.525 0 0 0-1.886-.842 2.56 2.56 0 0 0-1.045.218c-.32.145-.6.353-.841.624a2.981 2.981 0 0 0-.58.943 3.137 3.137 0 0 0-.218 1.19c0 .435.072.837.217 1.204.145.358.339.673.58.943.242.262.523.465.842.61a2.56 2.56 0 0 0 1.045.217z"></path><path clip-rule="evenodd" d="m6.789.957 3.997 6.256-3.997 2.33-3.997-2.33zm-2.773 5.96 2.773-4.34 2.773 4.34-2.773 1.617z" fill-rule="evenodd"></path><path d="M6.783 10.92 2.146 8.216l-.126.198a5.653 5.653 0 1 0 9.527 0l-.127-.198-4.637 2.702z"></path></g></svg>