<svg width="96" height="96" viewBox="0 0 96 96" fill="none" xmlns="http://www.w3.org/2000/svg"><path d="M48.72 95a47 47 0 1 0 0-94 47 47 0 0 0 0 94z" fill="#22A079"/><path d="M54.36 51.915v-.008c-.316.022-1.95.118-5.588.118-2.909 0-4.949-.08-5.67-.118v.008c-11.186-.494-19.529-2.438-19.529-4.772 0-2.327 8.35-4.278 19.529-4.772v7.607c.729.051 2.827.177 5.721.177 3.476 0 5.214-.148 5.538-.177v-7.6c11.163.501 19.484 2.445 19.484 4.772 0 2.327-8.328 4.271-19.484 4.772v-.007zm0-10.324v-6.804h15.575V24.41h-42.4v10.376h15.574v6.804c-12.658.581-22.172 3.085-22.172 6.09 0 3.004 9.521 5.508 22.172 6.097v21.811h11.26V53.778c12.635-.582 22.135-3.086 22.135-6.09 0-2.997-9.5-5.508-22.136-6.09" fill="#FEFEFE"/></svg>