<svg width="163" height="27" viewBox="0 0 163 27" fill="none" xmlns="http://www.w3.org/2000/svg"><path d="M55.685 18.311c-2.342 0-4.222-.617-5.642-1.851-1.419-1.234-2.13-2.867-2.13-4.898 0-2.031.711-3.664 2.13-4.898 1.42-1.23 3.3-1.851 5.642-1.851 2.306 0 4.17.53 5.59 1.586 1.42 1.058 2.147 2.448 2.183 4.175v2.078H52.325c.398 1.558 1.949 2.335 4.648 2.335.501 0 .982-.02 1.447-.062.466-.043.851-.094 1.15-.152a9.133 9.133 0 0 0 1.005-.266c.37-.117.64-.21.815-.277.171-.067.434-.176.788-.332.353-.153.592-.25.711-.305v3.476c-1.224.457-2.326.777-3.308.965-.982.187-2.278.277-3.896.277zm-3.459-7.432 6.974-.153c-.052-.777-.398-1.383-1.034-1.812-.636-.43-1.463-.645-2.477-.645-.93 0-1.71.23-2.338.696-.632.46-1.006 1.101-1.125 1.914zM64.162 17.904V5.218h4.802l-.516 5.226h.206c.31-1.91.974-3.328 1.988-4.25 1.018-.921 2.501-1.382 4.445-1.382 1.272.02 2.282.246 3.022.687.74.442 1.304 1.215 1.694 2.324.385 1.106.58 2.637.58 4.578v5.503h-4.445v-5.073c0-1.758-.25-2.988-.747-3.691-.501-.7-1.344-1.051-2.533-1.051-1.205 0-2.183.55-2.93 1.648-.752 1.102-1.125 2.531-1.125 4.289v3.882h-4.441v-.004zM81.507 17.904V15.72l9.295-7.23h-9.088V5.219h16.81V7.35l-9.244 7.257h8.99v3.297H81.506zM103.785 22.978l2.867-5.226-7.36-12.534h5.038l4.6 8.218 4.572-8.218h4.878l-9.709 17.76h-4.886zM118.972 17.904V5.218h4.803l-.517 5.226h.207c.31-1.91.974-3.328 1.988-4.25 1.018-.921 2.497-1.382 4.445-1.382 1.65.035 2.878.457 3.681 1.27.799.812 1.288 2.265 1.459 4.362h.207c.31-1.91.974-3.328 1.988-4.25 1.014-.921 2.493-1.382 4.441-1.382 1.272.02 2.282.246 3.022.687.739.442 1.304 1.215 1.689 2.324.39 1.106.581 2.637.581 4.578v5.503h-4.445v-5.073c0-1.777-.247-3.012-.748-3.703-.5-.691-1.343-1.039-2.528-1.039-1.205 0-2.183.55-2.93 1.648-.748 1.102-1.122 2.531-1.122 4.289v3.882h-4.444v-5.077c0-1.777-.251-3.012-.748-3.703-.501-.691-1.344-1.039-2.533-1.039-1.204 0-2.182.55-2.93 1.648-.751 1.102-1.125 2.531-1.125 4.289v3.882h-4.441v-.004zM155.227 18.31c-2.342 0-4.222-.617-5.642-1.85-1.419-1.235-2.131-2.868-2.131-4.899 0-2.03.712-3.663 2.131-4.898 1.42-1.23 3.3-1.851 5.642-1.851 2.306 0 4.171.531 5.59 1.586 1.419 1.058 2.147 2.449 2.183 4.175v2.078h-11.132c.397 1.558 1.948 2.336 4.647 2.336.501 0 .982-.02 1.447-.063.466-.043.851-.094 1.149-.152a9.065 9.065 0 0 0 1.006-.266c.37-.117.64-.21.815-.277.171-.066.434-.176.788-.332.353-.152.592-.25.711-.305v3.476c-1.224.457-2.326.778-3.308.965-.982.188-2.278.277-3.896.277zm-3.463-7.432 6.974-.153c-.052-.777-.398-1.382-1.034-1.812-.636-.43-1.463-.644-2.477-.644-.93 0-1.71.23-2.338.695-.628.46-1.002 1.101-1.125 1.914z" fill="#fff"/><path d="M21.991 3.398a3.398 3.398 0 1 1 6.795 0v9.854h-6.795V3.399z" fill="url(#a)"/><path d="M21.991 23.236a3.528 3.528 0 0 1-7.057 0v-9.984h7.057v9.984z" fill="url(#b)"/><path d="M10.494 6.64a2.222 2.222 0 1 1 4.443 0v6.613h-4.443V6.64z" fill="url(#c)"/><path d="M10.494 16.614a2.875 2.875 0 0 1-5.75 0v-3.362h5.75v3.362z" fill="url(#d)"/><path d="M41.394 15.431a2.17 2.17 0 1 1-4.34 0v-2.17h4.34v2.17z" fill="url(#e)"/><path d="M.404 11.092a2.17 2.17 0 1 1 4.34 0v2.17H.405v-2.17z" fill="url(#f)"/><path d="M33.23 21.166a2.222 2.222 0 0 1-4.442 0v-7.913h4.443v7.913z" fill="url(#g)"/><path d="M33.231 6.116a1.96 1.96 0 1 1 3.92 0v7.135h-3.92V6.116z" fill="url(#h)"/><defs><linearGradient id="a" x1="25.389" y1="2.84" x2="25.389" y2="9.308" gradientUnits="userSpaceOnUse"><stop stop-color="#6F56FD"/><stop offset="1" stop-color="#00CABE"/></linearGradient><linearGradient id="b" x1="18.463" y1="23.869" x2="18.463" y2="17.274" gradientUnits="userSpaceOnUse"><stop stop-color="#6F56FD"/><stop offset="1" stop-color="#00CABE"/></linearGradient><linearGradient id="c" x1="12.715" y1="6.311" x2="12.715" y2="10.624" gradientUnits="userSpaceOnUse"><stop stop-color="#6F56FD"/><stop offset="1" stop-color="#00CABE"/></linearGradient><linearGradient id="d" x1="7.619" y1="18.152" x2="7.619" y2="15.108" gradientUnits="userSpaceOnUse"><stop stop-color="#6F56FD"/><stop offset="1" stop-color="#00CABE"/></linearGradient><linearGradient id="e" x1="39.224" y1="16.672" x2="39.224" y2="14.553" gradientUnits="userSpaceOnUse"><stop stop-color="#6F56FD"/><stop offset="1" stop-color="#00CABE"/></linearGradient><linearGradient id="f" x1="2.574" y1="9.852" x2="2.574" y2="11.97" gradientUnits="userSpaceOnUse"><stop stop-color="#6F56FD"/><stop offset="1" stop-color="#00CABE"/></linearGradient><linearGradient id="g" x1="31.009" y1="21.215" x2="31.009" y2="16.269" gradientUnits="userSpaceOnUse"><stop stop-color="#6F56FD"/><stop offset="1" stop-color="#00CABE"/></linearGradient><linearGradient id="h" x1="35.191" y1="6.105" x2="35.191" y2="10.544" gradientUnits="userSpaceOnUse"><stop stop-color="#6F56FD"/><stop offset="1" stop-color="#00CABE"/></linearGradient></defs></svg>