<svg width="379" height="93" viewBox="0 0 379 93" fill="none" xmlns="http://www.w3.org/2000/svg"><path d="M110.572 21.697h9.857V64h24.232v9.447h-34.089v-51.75zM187.75 21.697h9.857v51.75h-9.857v-51.75zM244.793 21.697h16.429c3.395 0 6.626.711 9.692 2.135a26.898 26.898 0 0 1 8.133 5.586c2.354 2.355 4.217 5.093 5.586 8.214 1.368 3.122 2.053 6.435 2.053 9.94s-.685 6.818-2.053 9.939c-1.369 3.121-3.232 5.86-5.586 8.214a28.162 28.162 0 0 1-8.133 5.668 23.508 23.508 0 0 1-9.692 2.054h-16.429v-51.75zM261.222 64c2.026 0 3.97-.438 5.832-1.314a16.296 16.296 0 0 0 5.011-3.533 15.85 15.85 0 0 0 3.449-5.175 15.958 15.958 0 0 0 1.315-6.407c0-2.245-.438-4.353-1.315-6.325-.82-2.026-1.971-3.778-3.449-5.257a16.295 16.295 0 0 0-5.011-3.532 13.539 13.539 0 0 0-5.832-1.314h-6.572V64h6.572zM353.215 73.857c-3.396 0-6.626-.657-9.693-1.971a26.195 26.195 0 0 1-7.968-5.585c-2.245-2.41-4.052-5.204-5.421-8.38-1.315-3.176-1.972-6.626-1.972-10.35 0-3.669.657-7.091 1.972-10.267 1.369-3.231 3.176-6.024 5.421-8.379a24.42 24.42 0 0 1 7.968-5.586 23.514 23.514 0 0 1 9.693-2.053c3.395 0 6.599.684 9.61 2.053a23.297 23.297 0 0 1 7.968 5.586c2.301 2.355 4.108 5.148 5.422 8.378 1.369 3.177 2.054 6.6 2.054 10.268 0 3.724-.685 7.174-2.054 10.35-1.314 3.176-3.121 5.97-5.422 8.38-2.244 2.354-4.9 4.216-7.968 5.585-3.011 1.314-6.215 1.971-9.61 1.971zm0-9.447c2.026 0 3.97-.41 5.832-1.232a14.505 14.505 0 0 0 4.847-3.45c1.369-1.533 2.464-3.312 3.285-5.338.821-2.081 1.232-4.354 1.232-6.819 0-2.464-.411-4.71-1.232-6.735-.821-2.081-1.916-3.861-3.285-5.34a14.011 14.011 0 0 0-4.847-3.532 14.298 14.298 0 0 0-5.832-1.232c-2.081 0-4.053.41-5.914 1.232-1.807.822-3.396 2-4.765 3.532-1.369 1.479-2.464 3.259-3.286 5.34-.821 2.026-1.232 4.271-1.232 6.735 0 2.465.411 4.738 1.232 6.819.822 2.026 1.917 3.805 3.286 5.338a14.75 14.75 0 0 0 4.765 3.45 14.482 14.482 0 0 0 5.914 1.232z" fill="#fff"/><path fill-rule="evenodd" clip-rule="evenodd" d="m32.887.714 22.627 35.418L32.886 49.32 10.261 36.132 32.887.714zm-15.7 33.743 15.7-24.575 15.7 24.575-15.7 9.15-15.7-9.15z" fill="#00A3FF"/><path d="M32.854 57.104 6.606 41.806l-.717 1.122C-2.195 55.582-.389 72.154 10.23 82.773c12.497 12.493 32.758 12.493 45.255 0 10.619-10.619 12.424-27.191 4.34-39.845l-.718-1.123-26.252 15.3-.001-.001z" fill="#00A3FF"/></svg>