<svg xmlns="http://www.w3.org/2000/svg" viewBox="0 0 1080 270.6"><g data-name="Layer 2"><g data-name="Layer 1"><path d="M306.2 155.7a3.56 3.56 0 0 1-3.6 3.5h-66.3c1.7 16.4 14 31.4 31.4 31.4 11.9 0 20.7-4.5 27.3-14a3.58 3.58 0 0 1 2.9-1.7 3.21 3.21 0 0 1 3.3 3.3 3.1 3.1 0 0 1-.5 1.7c-6.7 11.6-20 17.3-33 17.3-22.3 0-38.3-20-38.3-41.3s15.9-41.3 38.3-41.3 38.4 19.8 38.5 41.1zm-7.1-3.1c-1.4-16.4-14-31.4-31.4-31.4s-29.7 15-31.4 31.4zM386.8 116.2a3.4 3.4 0 0 1 3.3 3.3 3.21 3.21 0 0 1-3.3 3.3H369v69.9a3.33 3.33 0 0 1-3.3 3.3 3.4 3.4 0 0 1-3.3-3.3v-69.9h-17.1a3.21 3.21 0 0 1-3.3-3.3 3.33 3.33 0 0 1 3.3-3.3h17.1V90.7a3.55 3.55 0 0 1 3-3.5 3.27 3.27 0 0 1 3.7 3.3v25.7zM495.3 150v42.3a3.4 3.4 0 0 1-3.3 3.3 3.21 3.21 0 0 1-3.3-3.3V150c0-14.3-8.1-28.5-24-28.5-20.4 0-29.2 17.8-28 36.1 0 .5.2 2.6.2 2.9v31.7a3.55 3.55 0 0 1-3 3.5 3.27 3.27 0 0 1-3.7-3.3V53.3a3.33 3.33 0 0 1 3.3-3.3 3.4 3.4 0 0 1 3.3 3.3v78.6c5.7-10.2 15.9-17.1 27.8-17.1 19.6 0 30.7 17.1 30.7 35.2zM614.4 155.7a3.56 3.56 0 0 1-3.6 3.5h-66.3c1.7 16.4 14 31.4 31.4 31.4 11.9 0 20.7-4.5 27.3-14a3.58 3.58 0 0 1 2.9-1.7 3.21 3.21 0 0 1 3.3 3.3 3.1 3.1 0 0 1-.5 1.7c-6.7 11.6-20 17.3-33 17.3-22.3 0-38.3-20-38.3-41.3s15.9-41.3 38.3-41.3c22.2 0 38.4 19.8 38.5 41.1zm-7.2-3.1c-1.4-16.4-14-31.4-31.4-31.4s-29.7 15-31.4 31.4zM695.9 119.3a3.37 3.37 0 0 1-3.1 3.6c-19.5 2.9-28.3 18.8-28.3 37.3v31.7a3.55 3.55 0 0 1-3 3.5 3.27 3.27 0 0 1-3.7-3.3v-72.3a3.55 3.55 0 0 1 3-3.5 3.27 3.27 0 0 1 3.7 3.3v14.7c5.5-9.3 16.4-18.1 27.8-18.1 1.7 0 3.6 1.2 3.6 3.1zM804.9 155.7a3.56 3.56 0 0 1-3.6 3.5H735c1.7 16.4 14 31.4 31.4 31.4 11.9 0 20.7-4.5 27.3-14a3.58 3.58 0 0 1 2.9-1.7 3.21 3.21 0 0 1 3.3 3.3 3.1 3.1 0 0 1-.5 1.7c-6.7 11.6-20 17.3-33 17.3-22.3 0-38.3-20-38.3-41.3s15.9-41.3 38.3-41.3 38.4 19.8 38.5 41.1zm-7.1-3.1c-1.4-16.4-14-31.4-31.4-31.4s-29.7 15-31.4 31.4zM912.1 120.1v72.6a3.4 3.4 0 0 1-3.3 3.3 3.21 3.21 0 0 1-3.3-3.3v-13.8c-5.5 10.9-15.2 18.8-27.6 18.8-19.7 0-30.6-17.1-30.6-35.2V120a3.33 3.33 0 0 1 3.3-3.3 3.4 3.4 0 0 1 3.3 3.3v42.5c0 14.3 8.1 28.5 24 28.5 22.3 0 27.6-20.9 27.6-44v-27.1a3.35 3.35 0 0 1 4.5-3.1 3.63 3.63 0 0 1 2.1 3.3zM1080 149.7v42.5a3.4 3.4 0 0 1-3.3 3.3 3.21 3.21 0 0 1-3.3-3.3v-42.5c0-14.3-8.1-28.3-24-28.3-20 0-27.6 21.4-27.6 38v32.8a3.4 3.4 0 0 1-3.3 3.3 3.21 3.21 0 0 1-3.3-3.3v-42.5c0-14.3-8.1-28.3-24-28.3-20.2 0-28.5 15.9-27.8 37.1 0 .5.2 1.4 0 1.7v31.9a3.55 3.55 0 0 1-3 3.5 3.27 3.27 0 0 1-3.7-3.3v-72.5a3.55 3.55 0 0 1 3-3.5 3.27 3.27 0 0 1 3.7 3.3v12.1c5.7-10.2 15.9-16.9 27.8-16.9 13.5 0 24 8.6 28.3 21.1 5.5-12.4 16.2-21.1 29.9-21.1 19.5 0 30.6 16.9 30.6 34.9z" style="fill:#fff"/><path d="M83 100.1 0 137.8l83 49.1 83.1-49.1z" style="opacity:.6000000238418579;isolation:isolate"/><path d="m0 137.8 83 49.1V0z" style="opacity:.44999998807907104;isolation:isolate"/><path d="M83 0v186.9l83.1-49.1z" style="opacity:.800000011920929;isolation:isolate"/><path d="m0 153.6 83 117v-68z" style="opacity:.44999998807907104;isolation:isolate"/><path d="M83 202.6v68l83.1-117z" style="opacity:.800000011920929;isolation:isolate"/></g></g></svg>