<svg fill="none" height="19" viewBox="0 0 71 19" width="71" xmlns="http://www.w3.org/2000/svg"><g fill="#777fc2"><path d="M11.812 8.21V5.518H10.46V4.172H7.756V2.826H5.054v1.346H2.351v1.346H.999v8.076h1.352v1.346h2.701v1.346h2.704V14.94h2.703v-1.346h1.353v-2.692H9.107v1.343H7.756v1.346H5.054v-1.346H3.702v-5.38h1.352V5.517h2.702v1.346h1.351V8.21zM19.135 4.166c3.114 0 5.361 2.189 5.361 5.403 0 3.214-2.238 5.379-5.361 5.379-3.124 0-5.338-2.189-5.338-5.38 0-3.19 2.247-5.402 5.338-5.402zm0 1.98c-1.733 0-2.998 1.327-2.998 3.425 0 2.097 1.265 3.399 2.998 3.399 1.78 0 3.02-1.327 3.02-3.4 0-2.071-1.24-3.424-3.02-3.424zM26.393 5.052c1.52-.569 3.13-.868 4.754-.884 2.646 0 4.332 1 4.332 3.911v6.635h-2.295V8.287c0-1.492-.937-2.026-2.225-2.026a8.134 8.134 0 0 0-2.249.301v8.151h-2.317zM40.958 14.714 36.955 4.398h2.459l2.927 8.082 2.91-8.082h2.388l-4.034 10.316zM50.7 10.08v.046c.14 1.841 1.732 2.841 3.349 2.841 1.427 0 2.459-.325 3.488-1v2.026c-.936.652-2.317.954-3.652.954-3.232 0-5.434-2.055-5.434-5.309s2.156-5.48 5.012-5.48c3.02 0 4.45 1.932 4.45 4.75v1.165zm.07-1.49h4.964c-.046-1.608-.843-2.493-2.341-2.493-1.334 0-2.318.931-2.622 2.493zM65.719 9.406l3.841 5.308h-2.646l-2.552-3.61-2.553 3.61h-2.53l3.842-5.286-3.616-5.03h2.67l2.294 3.307 2.258-3.307h2.629z"></path></g></svg>