
<svg fill="none" height="19" viewBox="0 0 81 19" width="81" xmlns="http://www.w3.org/2000/svg"><g clip-rule="evenodd" fill="#374254" fill-rule="evenodd"><path d="M75.541 10.883c0-1.017-.558-1.782-1.44-1.782-.88 0-1.44.765-1.44 1.782 0 1.016.56 1.78 1.44 1.78.884.003 1.44-.762 1.44-1.78zm-.043-2.464V5.757a.38.38 0 0 1 .269-.372l1.317-.377v9.008h-1.461v-.765c-.368.574-1.028.91-1.853.91-1.696 0-2.69-1.459-2.69-3.277 0-1.817.994-3.276 2.69-3.276.823-.002 1.428.38 1.728.811zm-8.991-.67v.765c.268-.539.87-.91 1.74-.91 1.407 0 2.154 1.005 2.154 2.5v3.912h-1.584v-3.719c0-.73-.29-1.232-.993-1.232-.77 0-1.193.525-1.193 1.364v3.587h-1.584V7.749zm-5.164 6.412c-1.707 0-2.657-.79-2.657-2.823V7.75h1.584v3.613c0 .873.368 1.278 1.071 1.278s1.07-.407 1.07-1.278V7.749h1.585v3.587c.003 2.035-.946 2.825-2.653 2.825zm-7.887-3.278c0 1.124.647 1.78 1.483 1.78.836 0 1.484-.658 1.484-1.78S55.775 9.1 54.939 9.1c-.834 0-1.483.657-1.483 1.782zm1.485 3.278c-1.874 0-3.07-1.495-3.07-3.277 0-1.78 1.194-3.276 3.07-3.276 1.874 0 3.07 1.495 3.07 3.276-.002 1.782-1.196 3.277-3.07 3.277zm-7.898-3.278c0 1.016.559 1.78 1.44 1.78.882 0 1.44-.764 1.44-1.78 0-1.017-.558-1.782-1.44-1.782-.881 0-1.44.765-1.44 1.782zm.045 2.465v2.606a.38.38 0 0 1-.268.372l-1.316.371V7.75h1.462v.765c.367-.574 1.027-.91 1.852-.91 1.696 0 2.69 1.459 2.69 3.277 0 1.817-.994 3.276-2.69 3.276-.827.004-1.429-.379-1.73-.81zm-6.29-2.896v3.564h-1.584v-3.719c0-.693-.234-1.232-.937-1.232-.738 0-1.14.514-1.14 1.352v3.6h-1.584V7.75h1.462v.765c.268-.539.849-.91 1.685-.91.793 0 1.36.334 1.696.885.514-.61 1.105-.885 1.941-.885 1.406 0 2.12 1.041 2.12 2.5v3.912h-1.585v-3.719c0-.693-.234-1.232-.937-1.232-.748 0-1.137.514-1.137 1.387zm-10.531.43c0 1.125.647 1.782 1.483 1.782.837 0 1.484-.66 1.484-1.781S32.587 9.1 31.75 9.1c-.836 0-1.483.657-1.483 1.782zm1.483 3.279c-1.874 0-3.069-1.495-3.069-3.277 0-1.78 1.193-3.276 3.07-3.276s3.069 1.495 3.069 3.276c0 1.782-1.195 3.277-3.07 3.277zM20.46 9.758c0-2.654 1.707-4.414 3.984-4.414 1.975 0 3.538 1.256 3.839 3.325h-1.741c-.235-1.065-1.038-1.664-2.098-1.664-1.451 0-2.266 1.076-2.266 2.751 0 1.675.815 2.751 2.266 2.751 1.06 0 1.863-.599 2.098-1.663h1.74c-.3 2.069-1.863 3.325-3.838 3.325-2.277.003-3.983-1.755-3.983-4.41zM4.87 14.543a1.484 1.484 0 0 1-.65-1.242v-2.827c0-.108.026-.212.077-.305a.545.545 0 0 1 .775-.218l5.951 3.719c.348.218.562.616.562 1.049v2.928a.774.774 0 0 1-.099.38c-.196.345-.614.453-.935.242zm8.871-5.367c.348.219.562.617.562 1.05v5.942a.49.49 0 0 1-.23.423l-1.304.786a.254.254 0 0 1-.052.023v-3.3c0-.426-.209-.822-.551-1.043L6.939 9.706V5.98c0-.108.027-.212.078-.305a.545.545 0 0 1 .775-.218zm2.604-4.389c.35.217.564.618.564 1.051v8.68a.494.494 0 0 1-.237.427l-1.235.714V9.617c0-.427-.209-.821-.55-1.041L9.545 5.14V1.607c0-.108.027-.212.076-.305a.547.547 0 0 1 .775-.22z"></path></g></svg>