<svg fill="none" height="19" viewBox="0 0 42 19" width="42" xmlns="http://www.w3.org/2000/svg"><g fill="#374254"><path d="M25.835 14.567 21.824 4.136a.976.976 0 0 1-.05-.296.854.854 0 0 1 .196-.58.688.688 0 0 1 .244-.173.648.648 0 0 1 .289-.049.69.69 0 0 1 .414.148c.125.1.223.236.284.39l3.815 10.206 3.816-10.205a.934.934 0 0 1 .287-.39.69.69 0 0 1 .414-.149.649.649 0 0 1 .287.05.69.69 0 0 1 .243.172.854.854 0 0 1 .199.58c-.001.1-.018.2-.05.296l-4.011 10.431c-.069.23-.203.43-.383.574s-.397.223-.622.228h-.356c-.225-.005-.442-.085-.623-.228s-.313-.345-.382-.574zM33.968 15.05a.806.806 0 0 1-.207-.559V3.926c-.002-.106.015-.211.05-.31s.089-.189.157-.265a.686.686 0 0 1 .238-.175.646.646 0 0 1 .284-.056h6.519a.61.61 0 0 1 .267.055.65.65 0 0 1 .223.167.754.754 0 0 1 .207.526.712.712 0 0 1-.05.284.672.672 0 0 1-.157.234.688.688 0 0 1-.227.16.65.65 0 0 1-.267.054H35.24v3.847h5.185a.61.61 0 0 1 .267.055.65.65 0 0 1 .224.167c.065.068.118.15.153.24.036.091.054.188.054.286a.712.712 0 0 1-.05.284.672.672 0 0 1-.157.234.69.69 0 0 1-.226.16.65.65 0 0 1-.265.054H35.24v3.864h5.764a.61.61 0 0 1 .27.053.65.65 0 0 1 .224.169c.067.068.12.15.156.241.036.092.053.19.051.289a.712.712 0 0 1-.05.283.673.673 0 0 1-.157.235.649.649 0 0 1-.495.21H34.49a.606.606 0 0 1-.285-.048.645.645 0 0 1-.237-.175zM22.733 14.272 18.718 3.841a1.156 1.156 0 0 0-.38-.573 1.032 1.032 0 0 0-.62-.229h-.353a1.032 1.032 0 0 0-.622.228c-.18.144-.314.344-.383.574l-1.745 4.545h-1.323c-.19.003-.372.085-.506.23s-.21.34-.21.543v.008c0 .204.076.4.21.544s.316.227.506.23h.71l-1.665 4.331a.975.975 0 0 0-.05.296.854.854 0 0 0 .196.58.69.69 0 0 0 .244.173c.092.038.19.055.29.049a.688.688 0 0 0 .413-.148.935.935 0 0 0 .284-.39l1.837-4.892h1.262c.19-.002.372-.084.506-.229s.21-.34.21-.544v-.02c0-.204-.076-.4-.21-.544s-.316-.227-.506-.229h-.683l1.411-3.748 3.816 10.205c.06.155.158.29.284.39.12.095.265.146.414.149.099.006.198-.01.29-.049a.69.69 0 0 0 .247-.173c.131-.16.2-.367.191-.58a.745.745 0 0 0-.046-.296zM10.745 14.272 6.734 3.841c-.069-.23-.203-.431-.384-.575s-.4-.223-.625-.227h-.352a1.032 1.032 0 0 0-.623.228c-.18.144-.313.344-.382.574L2.623 8.386H1.3c-.19.003-.372.085-.506.23s-.21.34-.21.543v.008c0 .204.076.4.21.544s.316.227.506.23h.71L.345 14.271a.975.975 0 0 0-.05.296.854.854 0 0 0 .196.58.69.69 0 0 0 .244.173c.092.038.19.055.29.049a.689.689 0 0 0 .413-.148.935.935 0 0 0 .284-.39L3.559 9.94h1.27a.701.701 0 0 0 .508-.227.806.806 0 0 0 .212-.546v-.02a.806.806 0 0 0-.212-.545.701.701 0 0 0-.509-.228H4.15l1.4-3.748L9.365 14.83c.06.155.158.29.283.39.12.095.265.146.414.149.1.006.199-.01.292-.049a.689.689 0 0 0 .245-.173c.132-.16.2-.367.192-.58a.745.745 0 0 0-.046-.296z"></path></g></svg>