<svg xmlns="http://www.w3.org/2000/svg" style="display: none;">
    <symbol id="icon_logo1" fill="none" height="19" viewBox="0 0 81 19" width="81">
        <g clip-rule="evenodd" fill="#fff" fill-rule="evenodd">
            <path
                d="M75.541 10.883c0-1.017-.558-1.782-1.44-1.782-.88 0-1.44.765-1.44 1.782 0 1.016.56 1.78 1.44 1.78.884.003 1.44-.762 1.44-1.78zm-.043-2.464V5.757a.38.38 0 0 1 .269-.372l1.317-.377v9.008h-1.461v-.765c-.368.574-1.028.91-1.853.91-1.696 0-2.69-1.459-2.69-3.277 0-1.817.994-3.276 2.69-3.276.823-.002 1.428.38 1.728.811zm-8.991-.67v.765c.268-.539.87-.91 1.74-.91 1.407 0 2.154 1.005 2.154 2.5v3.912h-1.584v-3.719c0-.73-.29-1.232-.993-1.232-.77 0-1.193.525-1.193 1.364v3.587h-1.584V7.749zm-5.164 6.412c-1.707 0-2.657-.79-2.657-2.823V7.75h1.584v3.613c0 .873.368 1.278 1.071 1.278s1.07-.407 1.07-1.278V7.749h1.585v3.587c.003 2.035-.946 2.825-2.653 2.825zm-7.887-3.278c0 1.124.647 1.78 1.483 1.78.836 0 1.484-.658 1.484-1.78S55.775 9.1 54.939 9.1c-.834 0-1.483.657-1.483 1.782zm1.485 3.278c-1.874 0-3.07-1.495-3.07-3.277 0-1.78 1.194-3.276 3.07-3.276 1.874 0 3.07 1.495 3.07 3.276-.002 1.782-1.196 3.277-3.07 3.277zm-7.898-3.278c0 1.016.559 1.78 1.44 1.78.882 0 1.44-.764 1.44-1.78 0-1.017-.558-1.782-1.44-1.782-.881 0-1.44.765-1.44 1.782zm.045 2.465v2.606a.38.38 0 0 1-.268.372l-1.316.371V7.75h1.462v.765c.367-.574 1.027-.91 1.852-.91 1.696 0 2.69 1.459 2.69 3.277 0 1.817-.994 3.276-2.69 3.276-.827.004-1.429-.379-1.73-.81zm-6.29-2.896v3.564h-1.584v-3.719c0-.693-.234-1.232-.937-1.232-.738 0-1.14.514-1.14 1.352v3.6h-1.584V7.75h1.462v.765c.268-.539.849-.91 1.685-.91.793 0 1.36.334 1.696.885.514-.61 1.105-.885 1.941-.885 1.406 0 2.12 1.041 2.12 2.5v3.912h-1.585v-3.719c0-.693-.234-1.232-.937-1.232-.748 0-1.137.514-1.137 1.387zm-10.531.43c0 1.125.647 1.782 1.483 1.782.837 0 1.484-.66 1.484-1.781S32.587 9.1 31.75 9.1c-.836 0-1.483.657-1.483 1.782zm1.483 3.279c-1.874 0-3.069-1.495-3.069-3.277 0-1.78 1.193-3.276 3.07-3.276s3.069 1.495 3.069 3.276c0 1.782-1.195 3.277-3.07 3.277zM20.46 9.758c0-2.654 1.707-4.414 3.984-4.414 1.975 0 3.538 1.256 3.839 3.325h-1.741c-.235-1.065-1.038-1.664-2.098-1.664-1.451 0-2.266 1.076-2.266 2.751 0 1.675.815 2.751 2.266 2.751 1.06 0 1.863-.599 2.098-1.663h1.74c-.3 2.069-1.863 3.325-3.838 3.325-2.277.003-3.983-1.755-3.983-4.41zM4.87 14.543a1.484 1.484 0 0 1-.65-1.242v-2.827c0-.108.026-.212.077-.305a.545.545 0 0 1 .775-.218l5.951 3.719c.348.218.562.616.562 1.049v2.928a.774.774 0 0 1-.099.38c-.196.345-.614.453-.935.242zm8.871-5.367c.348.219.562.617.562 1.05v5.942a.49.49 0 0 1-.23.423l-1.304.786a.254.254 0 0 1-.052.023v-3.3c0-.426-.209-.822-.551-1.043L6.939 9.706V5.98c0-.108.027-.212.078-.305a.545.545 0 0 1 .775-.218zm2.604-4.389c.35.217.564.618.564 1.051v8.68a.494.494 0 0 1-.237.427l-1.235.714V9.617c0-.427-.209-.821-.55-1.041L9.545 5.14V1.607c0-.108.027-.212.076-.305a.547.547 0 0 1 .775-.22z">
            </path>
        </g>
    </symbol>
    <symbol id="icon_logo2" fill="none" height="19" viewBox="0 0 42 19" width="42">
        <g fill="#fff">
            <path
                d="M25.835 14.567 21.824 4.136a.976.976 0 0 1-.05-.296.854.854 0 0 1 .196-.58.688.688 0 0 1 .244-.173.648.648 0 0 1 .289-.049.69.69 0 0 1 .414.148c.125.1.223.236.284.39l3.815 10.206 3.816-10.205a.934.934 0 0 1 .287-.39.69.69 0 0 1 .414-.149.649.649 0 0 1 .287.05.69.69 0 0 1 .243.172.854.854 0 0 1 .199.58c-.001.1-.018.2-.05.296l-4.011 10.431c-.069.23-.203.43-.383.574s-.397.223-.622.228h-.356c-.225-.005-.442-.085-.623-.228s-.313-.345-.382-.574zM33.968 15.05a.806.806 0 0 1-.207-.559V3.926c-.002-.106.015-.211.05-.31s.089-.189.157-.265a.686.686 0 0 1 .238-.175.646.646 0 0 1 .284-.056h6.519a.61.61 0 0 1 .267.055.65.65 0 0 1 .223.167.754.754 0 0 1 .207.526.712.712 0 0 1-.05.284.672.672 0 0 1-.157.234.688.688 0 0 1-.227.16.65.65 0 0 1-.267.054H35.24v3.847h5.185a.61.61 0 0 1 .267.055.65.65 0 0 1 .224.167c.065.068.118.15.153.24.036.091.054.188.054.286a.712.712 0 0 1-.05.284.672.672 0 0 1-.157.234.69.69 0 0 1-.226.16.65.65 0 0 1-.265.054H35.24v3.864h5.764a.61.61 0 0 1 .27.053.65.65 0 0 1 .224.169c.067.068.12.15.156.241.036.092.053.19.051.289a.712.712 0 0 1-.05.283.673.673 0 0 1-.157.235.649.649 0 0 1-.495.21H34.49a.606.606 0 0 1-.285-.048.645.645 0 0 1-.237-.175zM22.733 14.272 18.718 3.841a1.156 1.156 0 0 0-.38-.573 1.032 1.032 0 0 0-.62-.229h-.353a1.032 1.032 0 0 0-.622.228c-.18.144-.314.344-.383.574l-1.745 4.545h-1.323c-.19.003-.372.085-.506.23s-.21.34-.21.543v.008c0 .204.076.4.21.544s.316.227.506.23h.71l-1.665 4.331a.975.975 0 0 0-.05.296.854.854 0 0 0 .196.58.69.69 0 0 0 .244.173c.092.038.19.055.29.049a.688.688 0 0 0 .413-.148.935.935 0 0 0 .284-.39l1.837-4.892h1.262c.19-.002.372-.084.506-.229s.21-.34.21-.544v-.02c0-.204-.076-.4-.21-.544s-.316-.227-.506-.229h-.683l1.411-3.748 3.816 10.205c.06.155.158.29.284.39.12.095.265.146.414.149.099.006.198-.01.29-.049a.69.69 0 0 0 .247-.173c.131-.16.2-.367.191-.58a.745.745 0 0 0-.046-.296zM10.745 14.272 6.734 3.841c-.069-.23-.203-.431-.384-.575s-.4-.223-.625-.227h-.352a1.032 1.032 0 0 0-.623.228c-.18.144-.313.344-.382.574L2.623 8.386H1.3c-.19.003-.372.085-.506.23s-.21.34-.21.543v.008c0 .204.076.4.21.544s.316.227.506.23h.71L.345 14.271a.975.975 0 0 0-.05.296.854.854 0 0 0 .196.58.69.69 0 0 0 .244.173c.092.038.19.055.29.049a.689.689 0 0 0 .413-.148.935.935 0 0 0 .284-.39L3.559 9.94h1.27a.701.701 0 0 0 .508-.227.806.806 0 0 0 .212-.546v-.02a.806.806 0 0 0-.212-.545.701.701 0 0 0-.509-.228H4.15l1.4-3.748L9.365 14.83c.06.155.158.29.283.39.12.095.265.146.414.149.1.006.199-.01.292-.049a.689.689 0 0 0 .245-.173c.132-.16.2-.367.192-.58a.745.745 0 0 0-.046-.296z">
            </path>
        </g>
    </symbol>
    <symbol id="icon_logo3" fill="none" height="19" viewBox="0 0 71 19" width="71">
        <g fill="#fff">
            <path
                d="M11.812 8.21V5.518H10.46V4.172H7.756V2.826H5.054v1.346H2.351v1.346H.999v8.076h1.352v1.346h2.701v1.346h2.704V14.94h2.703v-1.346h1.353v-2.692H9.107v1.343H7.756v1.346H5.054v-1.346H3.702v-5.38h1.352V5.517h2.702v1.346h1.351V8.21zM19.135 4.166c3.114 0 5.361 2.189 5.361 5.403 0 3.214-2.238 5.379-5.361 5.379-3.124 0-5.338-2.189-5.338-5.38 0-3.19 2.247-5.402 5.338-5.402zm0 1.98c-1.733 0-2.998 1.327-2.998 3.425 0 2.097 1.265 3.399 2.998 3.399 1.78 0 3.02-1.327 3.02-3.4 0-2.071-1.24-3.424-3.02-3.424zM26.393 5.052c1.52-.569 3.13-.868 4.754-.884 2.646 0 4.332 1 4.332 3.911v6.635h-2.295V8.287c0-1.492-.937-2.026-2.225-2.026a8.134 8.134 0 0 0-2.249.301v8.151h-2.317zM40.958 14.714 36.955 4.398h2.459l2.927 8.082 2.91-8.082h2.388l-4.034 10.316zM50.7 10.08v.046c.14 1.841 1.732 2.841 3.349 2.841 1.427 0 2.459-.325 3.488-1v2.026c-.936.652-2.317.954-3.652.954-3.232 0-5.434-2.055-5.434-5.309s2.156-5.48 5.012-5.48c3.02 0 4.45 1.932 4.45 4.75v1.165zm.07-1.49h4.964c-.046-1.608-.843-2.493-2.341-2.493-1.334 0-2.318.931-2.622 2.493zM65.719 9.406l3.841 5.308h-2.646l-2.552-3.61-2.553 3.61h-2.53l3.842-5.286-3.616-5.03h2.67l2.294 3.307 2.258-3.307h2.629z">
            </path>
        </g>
    </symbol>
    <symbol id="icon_logo4" fill="none" height="19" viewBox="0 0 69 19" width="69">
        <g fill="#fff">
            <path
                d="M20.51 4.664h1.742v7.473h4.28v1.668h-6.021zM34.143 4.664h1.74v9.141h-1.74zM44.219 4.664h2.902c.6 0 1.17.126 1.712.377.542.242 1.02.571 1.436.987.416.416.745.9.987 1.451s.363 1.137.363 1.756-.121 1.204-.363 1.755a4.705 4.705 0 0 1-.987 1.451c-.416.416-.894.75-1.436 1.002a4.153 4.153 0 0 1-1.712.362h-2.902zm2.902 7.473c.358 0 .701-.078 1.03-.232a2.88 2.88 0 0 0 .885-.624c.261-.262.464-.566.61-.915.154-.358.231-.735.231-1.131a2.72 2.72 0 0 0-.232-1.118 2.768 2.768 0 0 0-.609-.928 2.878 2.878 0 0 0-.885-.624 2.392 2.392 0 0 0-1.03-.232H45.96v5.804zM63.372 13.878c-.6 0-1.17-.116-1.712-.348a4.626 4.626 0 0 1-1.408-.987 5.13 5.13 0 0 1-.958-1.48 4.735 4.735 0 0 1-.348-1.828c0-.648.116-1.253.349-1.814.241-.57.56-1.064.957-1.48a4.312 4.312 0 0 1 1.408-.986c.541-.242 1.112-.363 1.712-.363s1.165.12 1.697.363a4.118 4.118 0 0 1 1.408.986c.406.416.725.91.958 1.48.241.561.362 1.166.362 1.814a4.57 4.57 0 0 1-.362 1.828 4.758 4.758 0 0 1-.958 1.48 4.402 4.402 0 0 1-1.408.987 4.199 4.199 0 0 1-1.697.348zm0-1.669a2.564 2.564 0 0 0 1.886-.827c.242-.27.435-.585.58-.943.146-.367.218-.769.218-1.204 0-.435-.073-.832-.218-1.19a2.981 2.981 0 0 0-.58-.943 2.525 2.525 0 0 0-1.886-.842 2.56 2.56 0 0 0-1.045.218c-.32.145-.6.353-.841.624a2.981 2.981 0 0 0-.58.943 3.137 3.137 0 0 0-.218 1.19c0 .435.072.837.217 1.204.145.358.339.673.58.943.242.262.523.465.842.61a2.56 2.56 0 0 0 1.045.217z">
            </path>
            <path clip-rule="evenodd"
                d="m6.789.957 3.997 6.256-3.997 2.33-3.997-2.33zm-2.773 5.96 2.773-4.34 2.773 4.34-2.773 1.617z"
                fill-rule="evenodd"></path>
            <path d="M6.783 10.92 2.146 8.216l-.126.198a5.653 5.653 0 1 0 9.527 0l-.127-.198-4.637 2.702z"></path>
        </g>
    </symbol>
    <symbol id="icon_logo5" width="66" height="15" viewBox="0 0 66 15" fill="none">
        <g clip-path="url(#a)">
            <path
                d="M16.4 14.706v-1.028l1.74-.404V3.287l-1.738-.404V1.855h10.033v3.763H25.32l-.755-2.368h-3.345v4.278l3.515-.313v1.818l-3.515-.275v4.553h3.382l1.285-2.57h1.115l-.567 3.965H16.401zM27.851 6.5v-.974h4.516v6.334c0 .624.079 1.056.236 1.294.158.239.476.358.955.358.365 0 .743-.092 1.133-.275.391-.184.706-.429.946-.735V6.867l-1.228-.368v-.973h4.157v7.803h1.474v.79c-.277.183-.501.315-.671.393-.17.08-.36.16-.567.24a3.34 3.34 0 0 1-.642.174 3.763 3.763 0 0 1-.615.055c-.907 0-1.543-.398-1.908-1.194-.895.796-1.991 1.194-3.288 1.194-1.928 0-2.892-.96-2.891-2.882V6.867l-1.607-.368zM40.568 14.706v-.973l1.606-.367V1.689h-1.606V.716L43.591.02h1.493v13.347l1.606.367v.973h-6.122zM47.54 10.006c0-1.444.42-2.597 1.257-3.46.838-.864 1.975-1.295 3.41-1.294 1.462 0 2.567.483 3.317 1.45s1.124 2.16 1.124 3.58H50.45c.089.9.422 1.677 1.002 2.328.58.651 1.323.977 2.23.977.68 0 1.41-.135 2.192-.404l.396 1.046c-1.171.502-2.317.752-3.439.752-1.625 0-2.913-.462-3.864-1.386-.95-.924-1.426-2.12-1.426-3.59zm2.91-.863 3.194-.202a5.488 5.488 0 0 0-.057-.816c-.038-.251-.146-.554-.321-.91-.315-.513-.687-.77-1.115-.77-.504 0-.92.25-1.247.752-.19.31-.319.653-.378 1.01a4.37 4.37 0 0 0-.076.936zM57.744 14.706v-.973l1.606-.367V7.197h-1.606v-.972l3.024-.698h1.492V6.63c.945-.918 2.066-1.377 3.364-1.377.078.25.116.51.113.771a6.33 6.33 0 0 1-.189 1.579l-2.38-.386c-.303.135-.605.331-.908.588v5.562l1.984.367v.973h-6.5z"
                fill="#fff"></path>
            <path
                d="m8.36 1.967-7.306 3.16a1.28 1.28 0 0 0-.676 1.71c.3.654 1.088.948 1.76.657l7.307-3.16a1.28 1.28 0 0 0 .676-1.71c-.3-.654-1.087-.948-1.76-.657z"
                fill="#fff"></path>
            <path
                d="M6.334 7.097 1.463 9.204a1.28 1.28 0 0 0-.676 1.71c.3.654 1.088.948 1.76.657l4.871-2.107a1.28 1.28 0 0 0 .676-1.71c-.3-.654-1.087-.948-1.76-.657z"
                fill="#fff"></path>
            <path
                d="m11.614 9.066-7.307 3.161a1.28 1.28 0 0 0-.675 1.71c.299.654 1.087.948 1.76.657l7.306-3.161a1.28 1.28 0 0 0 .676-1.71c-.3-.654-1.087-.948-1.76-.657z"
                fill="#fff"></path>
        </g>
        <defs>
            <clipPath id="a">
                <path fill="#fff" d="M0 0h66v15H0z"></path>
            </clipPath>
        </defs>
    </symbol>
    <symbol id="icon_audit_arrow" fill="none" height="16" viewBox="0 0 12 16" width="12">
        <path clip-rule="evenodd" d="M2.828 13.641 4 14.813l5.656-5.657L4 3.5 2.828 4.671l4.485 4.485z" fill="#fff" fill-rule="evenodd"></path>
    </symbol>
    <svg id="icon_nav_open" viewBox="0 0 24 24"><g data-name="Layer 2"><g data-name="menu"><rect width="18" height="2" x="3" y="11" rx=".95" ry=".95"/><rect width="18" height="2" x="3" y="16" rx=".95" ry=".95"/><rect width="18" height="2" x="3" y="6" rx=".95" ry=".95"/></g></g>
    </svg>
</svg>

