<svg width="66" height="15" viewBox="0 0 66 15" fill="none" xmlns="http://www.w3.org/2000/svg"><g clip-path="url(#a)"><path d="M16.4 14.706v-1.028l1.74-.404V3.287l-1.738-.404V1.855h10.033v3.763H25.32l-.755-2.368h-3.345v4.278l3.515-.313v1.818l-3.515-.275v4.553h3.382l1.285-2.57h1.115l-.567 3.965H16.401zM27.851 6.5v-.974h4.516v6.334c0 .624.079 1.056.236 1.294.158.239.476.358.955.358.365 0 .743-.092 1.133-.275.391-.184.706-.429.946-.735V6.867l-1.228-.368v-.973h4.157v7.803h1.474v.79c-.277.183-.501.315-.671.393-.17.08-.36.16-.567.24a3.34 3.34 0 0 1-.642.174 3.763 3.763 0 0 1-.615.055c-.907 0-1.543-.398-1.908-1.194-.895.796-1.991 1.194-3.288 1.194-1.928 0-2.892-.96-2.891-2.882V6.867l-1.607-.368zM40.568 14.706v-.973l1.606-.367V1.689h-1.606V.716L43.591.02h1.493v13.347l1.606.367v.973h-6.122zM47.54 10.006c0-1.444.42-2.597 1.257-3.46.838-.864 1.975-1.295 3.41-1.294 1.462 0 2.567.483 3.317 1.45s1.124 2.16 1.124 3.58H50.45c.089.9.422 1.677 1.002 2.328.58.651 1.323.977 2.23.977.68 0 1.41-.135 2.192-.404l.396 1.046c-1.171.502-2.317.752-3.439.752-1.625 0-2.913-.462-3.864-1.386-.95-.924-1.426-2.12-1.426-3.59zm2.91-.863 3.194-.202a5.488 5.488 0 0 0-.057-.816c-.038-.251-.146-.554-.321-.91-.315-.513-.687-.77-1.115-.77-.504 0-.92.25-1.247.752-.19.31-.319.653-.378 1.01a4.37 4.37 0 0 0-.076.936zM57.744 14.706v-.973l1.606-.367V7.197h-1.606v-.972l3.024-.698h1.492V6.63c.945-.918 2.066-1.377 3.364-1.377.078.25.116.51.113.771a6.33 6.33 0 0 1-.189 1.579l-2.38-.386c-.303.135-.605.331-.908.588v5.562l1.984.367v.973h-6.5z" fill="#fff"></path><path d="m8.36 1.967-7.306 3.16a1.28 1.28 0 0 0-.676 1.71c.3.654 1.088.948 1.76.657l7.307-3.16a1.28 1.28 0 0 0 .676-1.71c-.3-.654-1.087-.948-1.76-.657z" fill="#37BEC1"></path><path d="M6.334 7.097 1.463 9.204a1.28 1.28 0 0 0-.676 1.71c.3.654 1.088.948 1.76.657l4.871-2.107a1.28 1.28 0 0 0 .676-1.71c-.3-.654-1.087-.948-1.76-.657z" fill="#FBB144"></path><path d="m11.614 9.066-7.307 3.161a1.28 1.28 0 0 0-.675 1.71c.299.654 1.087.948 1.76.657l7.306-3.161a1.28 1.28 0 0 0 .676-1.71c-.3-.654-1.087-.948-1.76-.657z" fill="#E4615E"></path></g><defs><clipPath id="a"><path fill="#fff" d="M0 0h66v15H0z"></path></clipPath></defs></svg>